<svg id="Layer_1_1_" enable-background="new 0 0 64 64" height="512" viewBox="0 0 64 64" width="512" xmlns="http://www.w3.org/2000/svg"><path d="m31 40h2v9h-2z" fill="#68607c"/><circle cx="32" cy="55" fill="#91cbd7" r="7"/><path d="m56 13h-2v5h-14v-6h-2v6h-13v-6h-2v6h-14v-6h-2v8h24v6h2v-6h23z" fill="#68607c"/><path d="m61 25v16h-58v-16z" fill="#ed6571"/><path d="m57 31v4l-4 2-4-2v-4l4-2z" fill="#ffe5ca"/><circle cx="39" cy="33" fill="#91cbd7" r="4"/><path d="m21 29h8v8h-8z" fill="#fac7a4"/><path d="m11 29 4 8h-8z" fill="#ffd086"/><path d="m60 6v6l-5 3-5-3v-6l5-3z" fill="#f69489"/><circle cx="39" cy="9" fill="#91cbd7" r="5"/><path d="m19 4h10v10h-10z" fill="#91cbd7"/><path d="m8 3 5 11h-10z" fill="#ffe5ca"/><path d="m31 58.414-2.707-2.707 1.414-1.414 1.293 1.293 3.293-3.293 1.414 1.414z" fill="#68607c"/></svg>