<svg xmlns="http://www.w3.org/2000/svg" viewBox="0 0 705.53 182.52"><defs><style>.cls-1{fill:#fff;}</style></defs><g id="white-rgb"><path id="fullLogo" class="cls-1" d="M228.48,43.34h27.24v5.08c5.08-4.7,14.28-7.15,21.8-7.15,29.69,0,48.11,20.49,48.11,49.43,0,29.69-19.17,51.86-48.86,51.86-9.4,0-18-1.5-21-4.89v41H228.48Zm27.24,34.39v31.19c3,4.51,9.59,8.27,17.29,8.27,15.22,0,24.43-9.58,24.43-24.43,0-17.29-8.64-26.12-22.93-26.12A20.36,20.36,0,0,0,255.72,77.73Z"/><path id="fullLogo-2" data-name="fullLogo" class="cls-1" d="M387.58,41.27c31.19,0,53.17,21.24,53.17,50.74,0,29.31-22,50.55-53.17,50.55-30.26,0-52.81-21.24-52.81-50.55C334.77,62.51,356.38,41.27,387.58,41.27Zm0,75.92c14.84,0,25-9.39,25-25.18,0-16.16-11.28-25.37-25-25.37S363,75.85,363,92C363,106.29,372.92,117.19,387.58,117.19Z"/><path id="fullLogo-3" data-name="fullLogo" class="cls-1" d="M451.1,71.53c0-18.79,15.6-30.26,42.09-30.26,18.61,0,34.39,8.65,40.59,17.67l-18.6,17.85c-6.39-6.58-15.22-10.15-27.44-10.15-5.07,0-8.45,1.13-8.45,4.7,0,8.46,55.43,5.83,55.43,40.4,0,21.42-19.17,30.82-41.34,30.82-23.86,0-39.84-10.9-46.79-23.68l21.61-14.65c5.26,6.76,16.16,13,28.19,13,6.57,0,10.14-1.69,10.14-5.26C506.53,102.35,451.1,104.79,451.1,71.53Z"/><path id="fullLogo-4" data-name="fullLogo" class="cls-1" d="M562.79,3.88c8.83,0,15.22,5.83,15.22,13.53,0,8.08-6.39,13.91-15.22,13.91-9.58,0-15.41-5.83-15.41-13.91C547.38,9.71,553.77,3.88,562.79,3.88ZM549.07,43.34h27.25v97.72H549.07Z"/><path id="fullLogo-5" data-name="fullLogo" class="cls-1" d="M586.74,43.34h18.61V20.6h27.24V43.34h29.88V68.71H632.59v31.76c0,11.84,2.64,16.35,10,16.35,6.39,0,11.47-2.26,16.73-6.39l11.27,19.35c-6.76,7.14-17.29,12.4-30.63,12.4-20.48,0-34.57-11.08-34.57-33.63V68.71H586.74Z"/><path id="fullLogo-6" data-name="fullLogo" class="cls-1" d="M676,43.47h11.66v2.8h-4.35V57h-3V46.27H676Z"/><path id="fullLogo-7" data-name="fullLogo" class="cls-1" d="M689.17,43.47H692l4.33,6.47,4.11-6.47h2.7V57h-3v-8.1l-3.51,5.38h-.8l-3.62-5.44V57h-3Z"/><polygon id="fullLogo-8" data-name="fullLogo" class="cls-1" points="38.33 73.11 46.45 69.52 83.2 53.28 91.23 49.74 180.02 10.51 180.02 57.83 144.12 73.11 136 69.52 173.53 53.54 173.53 20.47 99.25 53.28 91.23 56.83 54.63 73 46.5 76.59 20.6 88.03 20.6 96.52 46.1 107.79 54.23 111.38 91.8 127.97 99.76 131.49 173.53 164.08 173.53 130.66 136.39 114.86 144.52 111.27 180.02 126.38 180.02 174.04 91.82 135.07 83.85 131.55 46.06 114.86 37.93 111.27 14.12 100.74 14.12 83.81 38.33 73.11"/><polygon class="cls-1" points="99.5 92.1 135.94 76.59 127.82 73 82.94 92.1 128.22 111.38 136.34 107.79 99.5 92.1"/><polygon id="fullLogo-9" data-name="fullLogo" class="cls-1" points="46.1 107.79 54.23 111.38 91.23 95.63 82.95 92.1 46.1 107.79"/><polygon id="fullLogo-10" data-name="fullLogo" class="cls-1" points="54.63 73 46.5 76.59 82.95 92.1 91.23 88.58 54.63 73"/><polygon id="fullLogo-11" data-name="fullLogo" class="cls-1" points="144.12 73.11 136 69.52 99.25 53.28 91.23 49.74 2.44 10.51 2.44 57.83 38.33 73.11 46.45 69.52 8.92 53.54 8.92 20.47 83.2 53.28 91.23 56.83 127.83 73 135.95 76.59 161.85 88.03 161.85 96.52 136.35 107.79 128.22 111.38 90.66 127.97 82.69 131.49 8.92 164.08 8.92 130.66 46.06 114.86 37.93 111.27 2.44 126.38 2.44 174.04 90.63 135.07 98.6 131.55 136.39 114.86 144.52 111.27 168.34 100.74 168.34 83.81 144.12 73.11"/></g></svg>