<?xml version="1.0" encoding="UTF-8" standalone="no"?>
<svg
   xmlns="http://www.w3.org/2000/svg" version="1.0"  width="30px"
   height="30px" viewBox="0 0 1792 1792" id="svg3397">
  <style type="text/css" id="style3399">.st0{fill:#38577F;}</style>
  <path class="st0" d="m 547.44461,1294.077 q 0,-19.8086 -14.47553,-34.2842 -14.47553,-14.4755 -34.28414,-14.4755 -19.80863,0 -34.28415,14.4755 -14.47552,14.4756 -14.47552,34.2842 0,19.8086 14.47552,34.2842 14.47552,14.4755 34.28415,14.4755 19.80861,0 34.28414,-14.4755 14.47553,-14.4756 14.47553,-34.2842 z M 1038.0889,974.09172 518.49355,1493.6869 q -28.18919,28.1892 -68.56828,28.1892 -39.61724,0 -69.33017,-28.1892 l -80.7582,-82.2819 q -28.95106,-27.4273 -28.95106,-68.5683 0,-40.3791 28.95106,-69.3302 L 818.67028,754.67317 q 29.71293,74.66322 87.23411,132.18441 57.52117,57.52124 132.18451,87.23414 z m 483.0253,-331.41341 q 0,29.71292 -17.5229,80.7582 -35.8079,102.09054 -125.3276,165.70673 -89.5197,63.61608 -196.9434,63.61608 -140.9459,0 -241.13176,-100.18583 -100.1859,-100.18592 -100.1859,-241.13185 0,-140.94593 100.1859,-241.13182 100.18586,-100.18589 241.13176,-100.18589 44.1884,0 92.5672,12.57085 48.3787,12.57085 81.901,35.42695 12.1899,8.38058 12.1899,21.33236 0,12.95179 -12.1899,21.33236 l -223.2279,128.75601 0,170.65885 147.0409,81.52008 q 3.8094,-2.28561 60.1877,-36.95069 56.3784,-34.66508 103.2334,-61.71146 46.855,-27.04639 53.7118,-27.04639 11.4281,0 17.904,7.61871 6.4758,7.6187 6.4758,19.04675 z"/>
</svg>
