<?xml version="1.0" encoding="utf-8"?>
<!-- Generator: Adobe Illustrator 23.1.1, SVG Export Plug-In . SVG Version: 6.00 Build 0)  -->
<svg version="1.1" id="Layer_1" xmlns="http://www.w3.org/2000/svg" xmlns:xlink="http://www.w3.org/1999/xlink" x="0px" y="0px"
	 viewBox="0 0 570 690" style="enable-background:new 0 0 570 690;" xml:space="preserve">
	 
<style type="text/css">
	.st0{fill:#f4b73b80;stroke:#FFFFFF;stroke-width:4;}
	.st1{fill:#f4b73b;stroke:#FFFFFF;stroke-width:3;} /*solid shape at bottom */
</style>


<title>tidy-back</title>
<path class="st0" d="M185,90l-60,34.8v69.5l60,34.8l60-34.8v-69.5L185,90z M240,191.4l-55,31.8l-55-31.8v-63.7l55-31.9l55,31.9
	V191.4z"/>
<path class="st0" d="M60,305L0,339.8v69.5L60,444l60-34.8v-69.5L60,305z M115,406.4l-55,31.8L5,406.4v-63.7l55-31.9l55,31.9V406.4z"
	/>
<path class="st0" d="M185,305l-60,34.8v69.5l60,34.8l60-34.8v-69.5L185,305z M240,406.4l-55,31.8l-55-31.8v-63.7l55-31.9l55,31.9
	V406.4z"/>
<path class="st0" d="M310,520l-60,34.8v69.5l60,34.8l60-34.8v-69.5L310,520z M365,621.4l-55,31.8l-55-31.8v-63.7l55-31.9l55,31.9
	V621.4z"/>
<path class="st0" d="M435,520l-60,34.8v69.5l60,34.8l60-34.8v-69.5L435,520z M490,621.4l-55,31.8l-55-31.8v-63.7l55-31.9l55,31.9
	V621.4z"/>
<polygon class="st1" points="182,301.8 182,232.2 122,197.5 62,232.2 62,301.8 122,336.5 "/>
<path class="st0" d="M247,197.5l-60,34.8v69.5l60,34.8l60-34.8v-69.5L247,197.5z M302,298.9l-55,31.8l-55-31.8v-63.7l55-31.9
	l55,31.9V298.9z"/>
<path class="st0" d="M247,412.5l-60,34.8v69.5l60,34.8l60-34.8v-69.5L247,412.5z M302,513.9l-55,31.8l-55-31.8v-63.7l55-31.9
	l55,31.9V513.9z"/>
<polygon class="st1" points="432,516.8 432,447.2 372,412.5 312,447.2 312,516.8 372,551.5 "/>
<polygon class="st1" points="182,86.8 182,17.2 122,-17.5 62,17.2 62,86.8 122,121.5 "/>
<polygon class="st1" points="432,662.2 372,627.5 312,662.2 312,690 432,690 "/>
</svg>
