<?xml version="1.0" encoding="utf-8"?>
<!-- Generator: Adobe Illustrator 23.1.1, SVG Export Plug-In . SVG Version: 6.00 Build 0)  -->
<svg version="1.1" id="Layer_1" xmlns="http://www.w3.org/2000/svg" xmlns:xlink="http://www.w3.org/1999/xlink" x="0px" y="0px"
	 viewBox="0 0 650 450" style="enable-background:new 0 0 650 450;" xml:space="preserve">
<style type="text/css">
	.st0{fill:#f4b73b;}
	.st1{fill:#4254a7;stroke:#FFFFFF;stroke-width:3;}
	.st2{fill: #d9d9d9; stroke:#FFFFFF;stroke-width:4;}
	.st3{fill:#FCFCFC;}
</style>
<title>tidy-back</title>
<polygon class="st0" points="370,272.2 370,202.8 310,168 250,202.8 250,272.2 310,307 "/>
<polygon class="st1" points="495,487.2 495,417.8 435,383 375,417.8 375,487.2 435,522 "/>
<g>
	<path class="st2" d="M185,168l-60,34.8v69.5l60,34.8l60-34.8v-69.5L185,168z M240,269.4l-55,31.8l-55-31.8v-63.7l55-31.9l55,31.9
		V269.4z"/>
</g>
<g>
	<path class="st2" d="M372,60.5l-60,34.8v69.5l60,34.8l60-34.8V95.2L372,60.5z M427,161.9l-55,31.8l-55-31.8V98.1l55-31.9l55,31.9
		V161.9z"/>
</g>
<g>
	<path class="st2" d="M372,275.5l-60,34.8v69.5l60,34.8l60-34.8v-69.5L372,275.5z M427,376.9l-55,31.8l-55-31.8v-63.7l55-31.9
		l55,31.9V376.9z"/>
</g>
<polygon class="st1" points="310,92 370,57.2 370,0 250,0 250,57.2 "/>
<path class="st3" d="M324.7,247.5c0-0.1-0.1-0.2-0.2-0.3c7-1.7,14-3.4,21-5.1c-5.8-11.9-11.6-23.8-17.5-35.8
	c-16.3,12.9-32.6,25.7-48.9,38.6c-0.4-0.8-0.8-1.6-1.2-2.4c-0.8,0.4-1.7,0.8-2.5,1.2c2.7,5.6,5.5,11.2,8.2,16.8
	c0.7-0.4,1.4-0.7,2.2-1.1c0.2-0.1,0.3-0.2,0.1-0.4c-0.3-0.6-0.6-1.2-0.9-1.8c0-0.1-0.1-0.2-0.2-0.3c0.8-0.2,1.6-0.4,2.4-0.6
	c2.6-0.6,5.1-1.2,7.7-1.9c0.3-0.1,0.5,0,0.6,0.3c1.5,3.2,3.1,6.4,4.6,9.5c0.7,1.4,1.8,2.4,3.3,2.8c1.1,0.3,2.1,0.2,3.2-0.2
	c0.4-0.1,0.8-0.3,1.2-0.5c5.1-2.5,10.3-5,15.4-7.5c1.1-0.6,2.1-1.3,2.8-2.4c1-1.6,1.1-3.3,0.3-5C326,250.1,325.4,248.8,324.7,247.5z
	 M321.5,253.7c-5.4,2.6-10.8,5.2-16.1,7.9c-0.1,0-0.2,0.1-0.3,0.1c-1.4-2.9-2.9-5.8-4.3-8.8c0.6-0.2,1.2-0.3,1.8-0.4
	c5.4-1.3,10.8-2.6,16.2-4c0.3-0.1,0.5,0,0.6,0.3c0.7,1.5,1.4,3,2.2,4.5C321.8,253.5,321.8,253.6,321.5,253.7z"/>
</svg>
