<svg id="Layer_1" data-name="Layer 1" xmlns="http://www.w3.org/2000/svg" viewBox="0 0 650 450"><defs>

<style>.cls-1{fill:#19152d;}

.cls-2{fill:#fceaa3;}

.cls-3{opacity:0.6;}

.cls-4{fill:#777381;}

.cls-5{fill:#fff;}</style>


</defs><title>tidy-back</title><polygon class="cls-1" points="370 272.25 370 202.75 310 168 250 202.75 250 272.25 310 307 370 272.25"/><polygon class="cls-2" points="495 487.25 495 417.75 435 383 375 417.75 375 487.25 435 522 495 487.25"/><g class="cls-3"><path class="cls-4" d="M185,173.78l55,31.85v63.74l-55,31.85-55-31.85V205.63l55-31.85m0-5.78-60,34.75v69.5L185,307l60-34.75v-69.5L185,168Z"/></g><g class="cls-3"><path class="cls-4" d="M372,66.28l55,31.85v63.74l-55,31.85-55-31.85V98.13l55-31.85m0-5.78L312,95.25v69.5l60,34.75,60-34.75V95.25L372,60.5Z"/></g><g class="cls-3"><path class="cls-4" d="M372,281.28l55,31.85v63.74l-55,31.85-55-31.85V313.13l55-31.85m0-5.78-60,34.75v69.5l60,34.75,60-34.75v-69.5L372,275.5Z"/></g><polygon class="cls-2" points="310 92 370 57.25 370 0 250 0 250 57.25 310 92"/><path class="cls-5" d="M317.73,220.47c0-4.77-3-8.73-8.73-8.73-4,0-7.56,2-10.35,5.22l-4.23-3.87c3.78-4.32,8.91-7.47,15.48-7.47,9.09,0,15,5.49,15,14.4,0,11.79-14.49,16.56-13,29.16H305.4C303.42,235.14,317.73,230,317.73,220.47Zm-14.22,42c0-3.42,2.34-5.76,5.31-5.76a5.68,5.68,0,0,1,0,11.34A5.33,5.33,0,0,1,303.51,262.5Z"/></svg>