<svg id="Layer_1" data-name="Layer 1" xmlns="http://www.w3.org/2000/svg" viewBox="0 0 700 952"><defs><style>.cls-1{opacity:0.25;}.cls-2,.cls-4{fill:#fff;}.cls-3,.cls-4{opacity:0.5;}</style></defs><title>tidy-back</title><g class="cls-1"><path class="cls-2" d="M435,50.78l55,31.85v63.74l-55,31.85-55-31.85V82.63l55-31.85M435,45,375,79.75v69.5L435,184l60-34.75V79.75L435,45Z"/></g><g class="cls-1"><path class="cls-2" d="M435,265.78l55,31.85v63.74l-55,31.85-55-31.85V297.63l55-31.85m0-5.78-60,34.75v69.5L435,399l60-34.75v-69.5L435,260Z"/></g><g class="cls-3"><path class="cls-2" d="M435,480.78l55,31.85v63.74l-55,31.85-55-31.85V512.63l55-31.85m0-5.78-60,34.75v69.5L435,614l60-34.75v-69.5L435,475Z"/></g><g class="cls-3"><path class="cls-2" d="M435,695.78l55,31.85v63.74l-55,31.85-55-31.85V727.63l55-31.85m0-5.78-60,34.75v69.5L435,829l60-34.75v-69.5L435,690Z"/></g><g class="cls-3"><polygon class="cls-2" points="620 794.25 620 724.75 560 690 500 724.75 500 794.25 560 829 620 794.25"/></g><g class="cls-3"><polygon class="cls-2" points="370 794.25 370 724.75 310 690 250 724.75 250 794.25 310 829 370 794.25"/></g><g class="cls-1"><path class="cls-2" d="M372,158.28l55,31.85v63.74l-55,31.85-55-31.85V190.13l55-31.85m0-5.78-60,34.75v69.5l60,34.75,60-34.75v-69.5L372,152.5Z"/></g><g class="cls-3"><polygon class="cls-2" points="557 471.75 557 402.25 497 367.5 437 402.25 437 471.75 497 506.5 557 471.75"/></g><g class="cls-3"><path class="cls-2" d="M497,588.28l55,31.85v63.74l-55,31.85-55-31.85V620.13l55-31.85m0-5.78-60,34.75v69.5l60,34.75,60-34.75v-69.5L497,582.5Z"/></g><g class="cls-3"><path class="cls-2" d="M372,803.28l55,31.85v63.74l-55,31.85-55-31.85V835.13l55-31.85m0-5.78-60,34.75v69.5l60,34.75,60-34.75v-69.5L372,797.5Z"/></g><g class="cls-3"><path class="cls-2" d="M622,803.28l55,31.85v63.74l-55,31.85-55-31.85V835.13l55-31.85m0-5.78-60,34.75v69.5l60,34.75,60-34.75v-69.5L622,797.5Z"/></g><polygon class="cls-4" points="372 76.5 432 41.75 432 0 312 0 312 41.75 372 76.5"/><g class="cls-3"><polygon class="cls-2" points="370 939.75 310 905 250 939.75 250 952 370 952 370 939.75"/></g></svg>