<?xml version="1.0" encoding="utf-8"?>
<!-- Generator: Adobe Illustrator 23.1.1, SVG Export Plug-In . SVG Version: 6.00 Build 0)  -->
<svg version="1.1" id="Layer_1" xmlns="http://www.w3.org/2000/svg" xmlns:xlink="http://www.w3.org/1999/xlink" x="0px" y="0px"
	 viewBox="0 0 700 952" style="enable-background:new 0 0 700 952;" xml:space="preserve">
<style type="text/css">
	.st0{opacity:0.1;}
	.st1{fill:#4254a7;stroke:#FFFFFF;stroke-width:4;}
	.st2{opacity:0.5;}
	.st3{fill:#4254a7;stroke:#FFFFFF;stroke-width:3;}
	.st4{fill:#f4b73b; stroke:#FFFFFF;stroke-width:3; opacity: 30%;} /*top solid shape */
</style>
<title>tidy-back</title>
<g class="st0">
	<path class="st1" d="M435,45l-60,34.8v69.5l60,34.8l60-34.8V79.8L435,45z M490,146.4l-55,31.8l-55-31.8V82.6l55-31.9l55,31.9V146.4
		z"/>
</g>
<g class="st0">
	<path class="st1" d="M435,260l-60,34.8v69.5l60,34.8l60-34.8v-69.5L435,260z M490,361.4l-55,31.8l-55-31.8v-63.7l55-31.9l55,31.9
		V361.4z"/>
</g>
<g class="st2">
	<path class="st1" d="M435,475l-60,34.8v69.5l60,34.8l60-34.8v-69.5L435,475z M490,576.4l-55,31.8l-55-31.8v-63.7l55-31.9l55,31.9
		V576.4z"/>
</g>
<g class="st2">
	<path class="st1" d="M435,690l-60,34.8v69.5l60,34.8l60-34.8v-69.5L435,690z M490,791.4l-55,31.8l-55-31.8v-63.7l55-31.9l55,31.9
		V791.4z"/>
</g>
<g class="st2">
	<polygon class="st3" points="620,794.2 620,724.8 560,690 500,724.8 500,794.2 560,829 	"/>
</g>
<g class="st2">
	<polygon class="st3" points="370,794.2 370,724.8 310,690 250,724.8 250,794.2 310,829 	"/>
</g>
<g class="st0">
	<path class="st1" d="M372,152.5l-60,34.8v69.5l60,34.8l60-34.8v-69.5L372,152.5z M427,253.9l-55,31.8l-55-31.8v-63.7l55-31.9
		l55,31.9V253.9z"/>
</g>
<g class="st2">
	<polygon class="st3" points="557,471.8 557,402.2 497,367.5 437,402.2 437,471.8 497,506.5 	"/>
</g>
<g class="st2">
	<path class="st1" d="M497,582.5l-60,34.8v69.5l60,34.8l60-34.8v-69.5L497,582.5z M552,683.9l-55,31.8l-55-31.8v-63.7l55-31.9
		l55,31.9V683.9z"/>
</g>
<g class="st2">
	<path class="st1" d="M372,797.5l-60,34.8v69.5l60,34.8l60-34.8v-69.5L372,797.5z M427,898.9l-55,31.8l-55-31.8v-63.7l55-31.9
		l55,31.9V898.9z"/>
</g>
<g class="st2">
	<path class="st1" d="M622,797.5l-60,34.8v69.5l60,34.8l60-34.8v-69.5L622,797.5z M677,898.9l-55,31.8l-55-31.8v-63.7l55-31.9
		l55,31.9V898.9z"/>
</g>
<polygon class="st4" points="372,76.5 432,41.8 432,0 312,0 312,41.8 "/>
<g class="st2">
	<polygon class="st3" points="370,939.8 310,905 250,939.8 250,952 370,952 	"/>
</g>
</svg>

