<?xml version="1.0" encoding="utf-8"?>
<!-- Generator: Adobe Illustrator 21.1.0, SVG Export Plug-In . SVG Version: 6.00 Build 0)  -->
<svg version="1.1" id="Layer_1" xmlns="http://www.w3.org/2000/svg" xmlns:xlink="http://www.w3.org/1999/xlink" x="0px" y="0px"
	 width="100px" height="100px" viewBox="0 0 100 100" style="enable-background:new 0 0 100 100;" xml:space="preserve">
<style type="text/css">
	.st0{fill:#FCEAA3;}
</style>
<g>
	<g>
		<path class="st0" d="M69.2-11.9l15.1,8.7v17.5L69.2,23l-15.1-8.7V-3.2L69.2-11.9 M69.2-15.4L51.1-4.9v21l18.1,10.5l18.1-10.5v-21
			L69.2-15.4L69.2-15.4z"/>
	</g>
</g>
<g>
	<polygon class="st0" points="67.3,51.1 67.3,30.1 49.2,19.6 31.1,30.1 31.1,51.1 49.2,61.6 	"/>
</g>
<g>
	<g>
		<path class="st0" d="M29.2,58.1l15.1,8.7v17.5L29.2,93l-15.1-8.7V66.8L29.2,58.1 M29.2,54.6L11.1,65.1v21l18.1,10.5l18.1-10.5v-21
			L29.2,54.6L29.2,54.6z"/>
	</g>
</g>
<g>
	<g>
		<path class="st0" d="M28.2-11.9l15.1,8.7v17.5L28.2,23l-15.1-8.7V-3.2L28.2-11.9 M28.2-15.4L10.1-4.9v21l18.1,10.5l18.1-10.5v-21
			L28.2-15.4L28.2-15.4z"/>
	</g>
</g>
<g>
	<g>
		<path class="st0" d="M89.2,23.1l15.1,8.7v17.5L89.2,58l-15.1-8.7V31.8L89.2,23.1 M89.2,19.6L71.1,30.1v21l18.1,10.5l18.1-10.5v-21
			L89.2,19.6L89.2,19.6z"/>
	</g>
</g>
<g>
	<g>
		<path class="st0" d="M69.2,58.1l15.1,8.7v17.5L69.2,93l-15.1-8.7V66.8L69.2,58.1 M69.2,54.6L51.1,65.1v21l18.1,10.5l18.1-10.5v-21
			L69.2,54.6L69.2,54.6z"/>
	</g>
</g>
</svg>
