<svg id="Layer_1" data-name="Layer 1" xmlns="http://www.w3.org/2000/svg" viewBox="0 0 570 690"><defs>

<style>
  .cls-1{
    fill:#fceaa3;
    }
</style>

</defs><title>tidy-back</title><path class="cls-1" d="M185,95.78l55,31.85v63.74l-55,31.85-55-31.85V127.63l55-31.85M185,90l-60,34.75v69.5L185,229l60-34.75v-69.5L185,90Z"/>

<path class="cls-1" d="M60,310.78l55,31.85v63.74L60,438.22,5,406.37V342.63l55-31.85M60,305,0,339.75v69.5L60,444l60-34.75v-69.5L60,305Z"/><path class="cls-1" d="M185,310.78l55,31.85v63.74l-55,31.85-55-31.85V342.63l55-31.85m0-5.78-60,34.75v69.5L185,444l60-34.75v-69.5L185,305Z"/>

<path class="cls-1" d="M310,525.78l55,31.85v63.74l-55,31.85-55-31.85V557.63l55-31.85m0-5.78-60,34.75v69.5L310,659l60-34.75v-69.5L310,520Z"/><path class="cls-1" d="M435,525.78l55,31.85v63.74l-55,31.85-55-31.85V557.63l55-31.85m0-5.78-60,34.75v69.5L435,659l60-34.75v-69.5L435,520Z"/>

<polygon class="cls-1" points="182 301.75 182 232.25 122 197.5 62 232.25 62 301.75 122 336.5 182 301.75"/>

<path class="cls-1" d="M247,203.28l55,31.85v63.74l-55,31.85-55-31.85V235.13l55-31.85m0-5.78-60,34.75v69.5l60,34.75,60-34.75v-69.5L247,197.5Z"/>

<path class="cls-1" d="M247,418.28l55,31.85v63.74l-55,31.85-55-31.85V450.13l55-31.85m0-5.78-60,34.75v69.5l60,34.75,60-34.75v-69.5L247,412.5Z"/>

<polygon class="cls-1" points="432 516.75 432 447.25 372 412.5 312 447.25 312 516.75 372 551.5 432 516.75"/>

<polygon class="cls-1" points="182 86.75 182 17.25 122 -17.5 62 17.25 62 86.75 122 121.5 182 86.75"/>

<polygon class="cls-1" points="432 662.25 372 627.5 312 662.25 312 690 432 690 432 662.25"/></svg>