<svg id="Layer_1_1_" enable-background="new 0 0 64 64" height="512" viewBox="0 0 64 64" width="512" xmlns="http://www.w3.org/2000/svg"><path d="m3 1h60v60h-60z" fill="#ffe5ca"/><path d="m57 5c0-1.1.9-2 2-2 .55 0 1.05.22 1.41.59.37.36.59.86.59 1.41 0 1.1-.9 2-2 2-.55 0-1.05-.22-1.41-.59-.37-.36-.59-.86-.59-1.41z" fill="#f69489"/><circle cx="55" cy="15" fill="#f69489" r="2"/><circle cx="51" cy="8" fill="#f69489" r="2"/><path d="m47.41 16.59c.37.36.59.86.59 1.41 0 1.1-.9 2-2 2-.55 0-1.05-.22-1.41-.59-.37-.36-.59-.86-.59-1.41 0-1.1.9-2 2-2 .55 0 1.05.22 1.41.59z" fill="#f69489"/><circle cx="41" cy="12" fill="#f69489" r="2"/><circle cx="37" cy="23" fill="#f69489" r="2"/><circle cx="43" cy="29" fill="#f69489" r="2"/><circle cx="38" cy="42" fill="#f69489" r="2"/><path d="m30 32c0-1.1.9-2 2-2 .55 0 1.05.22 1.41.59.37.36.59.86.59 1.41 0 1.1-.9 2-2 2-.55 0-1.05-.22-1.41-.59-.37-.36-.59-.86-.59-1.41z" fill="#f69489"/><path d="m25.82 38.18c.69.31 1.18 1.01 1.18 1.82 0 1.1-.9 2-2 2-.81 0-1.51-.49-1.82-1.18-.12-.25-.18-.53-.18-.82 0-1.1.9-2 2-2 .29 0 .57.06.82.18z" fill="#f69489"/><circle cx="25" cy="25" fill="#f69489" r="2"/><circle cx="16" cy="33" fill="#f69489" r="2"/><circle cx="13" cy="44" fill="#f69489" r="2"/><path d="m10 52c0-1.1.9-2 2-2 .55 0 1.05.22 1.41.59.37.36.59.86.59 1.41 0 1.1-.9 2-2 2-.55 0-1.05-.22-1.41-.59-.37-.36-.59-.86-.59-1.41z" fill="#f69489"/><g fill="#68607c"><path d="m62 62h-60v-60h2v58h58z"/><path d="m10 58h2v3h-2z"/><path d="m16 58h2v3h-2z"/><path d="m22 58h2v3h-2z"/><path d="m28 58h2v3h-2z"/><path d="m34 58h2v3h-2z"/><path d="m40 58h2v3h-2z"/><path d="m46 58h2v3h-2z"/><path d="m52 58h2v3h-2z"/><path d="m58 58h2v3h-2z"/><path d="m3 52h3v2h-3z"/><path d="m3 46h3v2h-3z"/><path d="m3 40h3v2h-3z"/><path d="m3 34h3v2h-3z"/><path d="m3 28h3v2h-3z"/><path d="m3 22h3v2h-3z"/><path d="m3 16h3v2h-3z"/><path d="m3 10h3v2h-3z"/><path d="m3 4h3v2h-3z"/><path d="m-3.184 28h76.368v2h-76.368z" transform="matrix(.707 -.707 .707 .707 -10.255 33.243)"/></g></svg>