<?xml version="1.0" standalone="no"?>
<!DOCTYPE svg PUBLIC "-//W3C//DTD SVG 20010904//EN"
 "http://www.w3.org/TR/2001/REC-SVG-20010904/DTD/svg10.dtd">
<svg version="1.0" xmlns="http://www.w3.org/2000/svg"
 width="852.000000pt" height="852.000000pt" viewBox="0 0 852.000000 852.000000"
 preserveAspectRatio="xMidYMid meet">
<metadata>
Created by potrace 1.11, written by Peter Selinger 2001-2013
</metadata>
<g transform="translate(0.000000,852.000000) scale(0.100000,-0.100000)"
fill="#000000" stroke="none">
<path d="M4235 8476 c-11 -6 -54 -31 -95 -54 -41 -24 -82 -47 -90 -52 -39 -24
-217 -127 -230 -133 -8 -4 -22 -11 -30 -17 -28 -19 -222 -130 -226 -130 -2 0
-33 -17 -67 -39 -34 -21 -159 -94 -277 -161 -118 -68 -312 -180 -430 -248
-118 -69 -235 -136 -259 -149 -40 -23 -255 -147 -710 -411 -91 -52 -177 -102
-191 -109 -14 -8 -43 -25 -65 -39 -22 -13 -47 -27 -55 -31 -8 -4 -31 -16 -50
-28 -19 -12 -159 -93 -310 -180 -151 -87 -339 -195 -416 -241 l-142 -83 0
-2121 0 -2121 118 -69 c66 -39 123 -70 129 -70 6 0 11 -4 11 -10 0 -5 4 -10 9
-10 4 0 58 -29 119 -64 61 -36 131 -76 154 -89 52 -30 197 -114 218 -127 8 -5
119 -69 245 -141 127 -73 293 -169 370 -214 77 -45 147 -84 155 -88 8 -4 33
-18 55 -32 22 -14 47 -28 55 -32 8 -3 26 -14 40 -23 14 -10 45 -28 70 -42 60
-33 742 -427 845 -487 44 -26 87 -50 95 -54 8 -4 29 -15 45 -25 27 -17 542
-315 675 -391 30 -17 62 -36 70 -41 8 -6 22 -13 30 -17 8 -4 48 -27 88 -51 86
-52 64 -56 244 49 68 39 148 85 178 102 30 17 73 41 94 55 22 13 58 34 80 46
23 13 91 52 152 88 61 35 117 68 125 71 8 4 35 20 60 35 25 15 110 64 190 110
79 46 151 87 159 92 118 70 153 90 155 90 2 0 38 20 79 45 42 25 81 45 86 45
6 0 10 5 10 10 0 6 4 10 9 10 5 0 42 19 83 43 40 24 93 55 118 69 25 14 115
66 200 115 193 112 532 308 585 338 22 13 81 47 130 75 78 46 363 210 450 260
17 10 118 68 225 130 107 62 228 131 267 154 51 28 73 47 74 61 1 25 1 4124 0
4188 -1 35 -5 49 -18 54 -16 6 -460 261 -493 283 -8 6 -22 13 -30 17 -8 4 -31
16 -50 28 -19 12 -55 33 -80 47 -25 14 -112 64 -194 112 -82 47 -151 86 -153
86 -2 0 -32 17 -66 38 -50 31 -199 118 -319 187 -143 81 -727 419 -769 444
-19 12 -47 28 -64 36 -16 9 -43 24 -60 34 -28 17 -253 148 -327 189 -18 11
-105 61 -193 112 -88 51 -176 102 -195 113 -19 10 -72 41 -118 68 -45 27 -85
49 -87 49 -4 0 -71 40 -130 78 -11 6 -27 15 -35 19 -8 4 -75 42 -148 85 -73
43 -138 78 -145 77 -7 -1 -21 -6 -32 -13z"/>
</g>
</svg>
