<?xml version="1.0" encoding="UTF-8" standalone="no"?>
<svg
   xmlns:dc="http://purl.org/dc/elements/1.1/"
   xmlns:cc="http://creativecommons.org/ns#"
   xmlns:rdf="http://www.w3.org/1999/02/22-rdf-syntax-ns#"
   xmlns:svg="http://www.w3.org/2000/svg"
   xmlns="http://www.w3.org/2000/svg"
   xmlns:sodipodi="http://sodipodi.sourceforge.net/DTD/sodipodi-0.dtd"
   xmlns:inkscape="http://www.inkscape.org/namespaces/inkscape"
   inkscape:version="1.0 (4035a4f, 2020-05-01)"
   sodipodi:docname="tidy-back-02-thin.svg"
   xml:space="preserve"
   style="enable-background:new 0 0 700 952;"
   viewBox="0 0 700 952"
   y="0px"
   x="0px"
   id="Layer_1"
   version="1.1"><metadata
   id="metadata943"><rdf:RDF><cc:Work
       rdf:about=""><dc:format>image/svg+xml</dc:format><dc:type
         rdf:resource="http://purl.org/dc/dcmitype/StillImage" /><dc:title>tidy-back</dc:title></cc:Work></rdf:RDF></metadata><defs
   id="defs941" /><sodipodi:namedview
   inkscape:current-layer="Layer_1"
   inkscape:window-maximized="0"
   inkscape:window-y="0"
   inkscape:window-x="0"
   inkscape:cy="515.79308"
   inkscape:cx="99.532326"
   inkscape:zoom="0.6460084"
   showgrid="false"
   id="namedview939"
   inkscape:window-height="900"
   inkscape:window-width="1440"
   inkscape:pageshadow="2"
   inkscape:pageopacity="0"
   guidetolerance="10"
   gridtolerance="10"
   objecttolerance="10"
   borderopacity="1"
   bordercolor="#666666"
   pagecolor="#ffffff" />
<style
   id="style884"
   type="text/css">
	.st0{opacity:0.1;}
	.st1{fill:#CC2F90;stroke:#FFFFFF;stroke-width:4;}
	.st2{opacity:0.5;}
	.st3{fill:#CC2F90;stroke:#FFFFFF;stroke-width:3;}
	.st4{fill:#EE4C2C; stroke:#FFFFFF;stroke-width:3; opacity: 30%;} /*top solid shape */
</style>
<title
   id="title886">tidy-back</title>
<g
   id="g890"
   class="st0">
	<path
   id="path888"
   d="M435,45l-60,34.8v69.5l60,34.8l60-34.8V79.8L435,45z M490,146.4l-55,31.8l-55-31.8V82.6l55-31.9l55,31.9V146.4   z"
   class="st1" />
</g>
<g
   id="g894"
   class="st0">
	<path
   id="path892"
   d="M435,260l-60,34.8v69.5l60,34.8l60-34.8v-69.5L435,260z M490,361.4l-55,31.8l-55-31.8v-63.7l55-31.9l55,31.9   V361.4z"
   class="st1" />
</g>
<g
   id="g898"
   class="st2">
	<path
   id="path896"
   d="M435,475l-60,34.8v69.5l60,34.8l60-34.8v-69.5L435,475z M490,576.4l-55,31.8l-55-31.8v-63.7l55-31.9l55,31.9   V576.4z"
   class="st1" />
</g>
<g
   id="g902"
   class="st2">
	<path
   id="path900"
   d="M435,690l-60,34.8v69.5l60,34.8l60-34.8v-69.5L435,690z M490,791.4l-55,31.8l-55-31.8v-63.7l55-31.9l55,31.9   V791.4z"
   class="st1" />
</g>
<g
   id="g906"
   class="st2">
	<polygon
   id="polygon904"
   points="620,794.2 620,724.8 560,690 500,724.8 500,794.2 560,829  "
   class="st3" />
</g>
<g
   id="g910"
   class="st2">
	<polygon
   id="polygon908"
   points="370,794.2 370,724.8 310,690 250,724.8 250,794.2 310,829  "
   class="st3" />
</g>
<g
   id="g914"
   class="st0">
	<path
   id="path912"
   d="M372,152.5l-60,34.8v69.5l60,34.8l60-34.8v-69.5L372,152.5z M427,253.9l-55,31.8l-55-31.8v-63.7l55-31.9   l55,31.9V253.9z"
   class="st1" />
</g>
<g
   id="g918"
   class="st2">
	<polygon
   id="polygon916"
   points="557,471.8 557,402.2 497,367.5 437,402.2 437,471.8 497,506.5  "
   class="st3" />
</g>
<g
   id="g922"
   class="st2">
	<path
   id="path920"
   d="M497,582.5l-60,34.8v69.5l60,34.8l60-34.8v-69.5L497,582.5z M552,683.9l-55,31.8l-55-31.8v-63.7l55-31.9   l55,31.9V683.9z"
   class="st1" />
</g>
<g
   id="g926"
   class="st2">
	<path
   id="path924"
   d="M372,797.5l-60,34.8v69.5l60,34.8l60-34.8v-69.5L372,797.5z M427,898.9l-55,31.8l-55-31.8v-63.7l55-31.9   l55,31.9V898.9z"
   class="st1" />
</g>
<g
   id="g930"
   class="st2">
	<path
   id="path928"
   d="M622,797.5l-60,34.8v69.5l60,34.8l60-34.8v-69.5L622,797.5z M677,898.9l-55,31.8l-55-31.8v-63.7l55-31.9   l55,31.9V898.9z"
   class="st1" />
</g>
<polygon
   style="fill:#ee4c2c;fill-opacity:0.71255058"
   id="polygon932"
   points="372,76.5 432,41.8 432,0 312,0 312,41.8 "
   class="st4" />
<g
   id="g936"
   class="st2">
	<polygon
   id="polygon934"
   points="370,939.8 310,905 250,939.8 250,952 370,952  "
   class="st3" />
</g>
</svg>
